<?xml version="1.0" encoding="UTF-8" standalone="no"?>
<!-- Created with Inkscape (http://www.inkscape.org/) -->
<svg
   xmlns:svg="http://www.w3.org/2000/svg"
   xmlns="http://www.w3.org/2000/svg"
   xmlns:xlink="http://www.w3.org/1999/xlink"
   version="1.0"
   width="142"
   height="116pt"
   id="svg2">
  <defs
     id="defs7" />
  <path
     d="M 9.8663611,0.356376 C 8.6008307,0.36454106 7.4050757,0.65062968 6.5297462,1.1175136 C 1.3849146,4.4308201 1.006605,9.4780532 2.6444041,12.030103 C 3.5698937,13.174407 4.9474721,14.337354 5.9013651,16.278313 C 6.9150022,18.340842 7.532185,21.96425 7.6714526,24.633126 C 8.1692862,37.450066 6.1871677,52.798232 6.1314765,63.079427 C 6.4526695,71.019872 6.7317967,80.238411 21.867554,82.807052 C 24.645836,83.31213 51.587057,83.063805 64.986886,81.019263 C 66.297558,93.168546 66.755209,105.86739 66.349853,116.74848 C 66.249253,119.31034 63.803737,119.4672 61.207749,119.53637 C 48.871024,118.76261 39.555045,118.0263 26.991958,119.34166 C 13.165232,121.50772 5.8053273,127.76304 2.3965919,131.19239 C -0.12536649,133.57518 -0.50129909,136.47108 0.54685044,138.3701 C 2.9116055,144.04687 7.8505373,145.86856 10.972666,143.99013 C 12.55771,143.40376 14.859781,141.6563 16.097069,139.89237 C 17.512154,137.87497 26.484704,134.2038 30.452479,134.82992 C 43.715473,134.3321 51.186717,135.06837 61.774177,135.4229 C 72.986767,135.30093 80.657926,130.29176 82.085931,118.64247 C 82.775302,115.70654 82.71736,93.489541 80.873421,79.753651 C 92.585705,78.486648 104.94138,77.702827 115.32817,78.089769 C 117.89003,78.190369 117.55127,80.9368 117.62044,83.532788 C 116.84668,95.869513 116.11037,108.27429 117.42573,120.83738 C 118.99411,134.96294 124.25177,141.01976 127.78074,143.83082 C 130.06391,145.55587 133.15678,145.13563 135.0558,144.08748 C 140.20063,140.65887 141.02146,137.10792 139.38366,134.46706 C 138.7973,132.88201 137.19721,131.11512 135.9851,129.3338 C 134.77207,127.55113 133.13247,117.76554 132.91399,114.68633 C 132.41617,101.42333 133.15244,93.553819 133.50697,82.96636 C 133.38502,71.75377 130.46453,63.772845 118.81525,62.34484 C 115.97877,61.678823 93.486654,61.971924 79.404249,63.681256 C 77.934085,50.817223 77.031436,36.39847 77.448302,24.818985 C 77.545518,22.257131 79.727707,22.702091 82.236389,22.632927 C 94.057197,23.093079 105.3767,23.572818 117.8948,23.429467 C 135.10704,22.159926 137.6938,16.29366 140.41031,12.764689 C 142.07735,10.481523 141.76838,7.4948528 140.75548,5.595835 C 137.44217,0.45100063 132.84631,-0.17512039 130.29426,1.4626807 C 128.76254,2.0490385 127.90346,3.0773942 126.49743,4.6665391 C 125.15977,6.1784119 123.01226,7.1208942 120.03661,7.3393712 C 107.21967,7.8372048 91.91905,6.6938047 81.687661,6.3392718 C 72.103592,6.6604619 63.337833,10.187102 61.765327,21.836388 C 61.060747,24.941515 61.455519,51.60344 63.553115,64.999972 L 63.579666,65.017672 L 63.579666,65.336288 C 50.688521,66.80477 36.268375,67.285483 24.655442,66.867414 C 21.827774,66.681586 22.010895,64.954949 22.062264,62.486447 C 22.522416,50.665641 23.601541,40.736207 23.956258,27.022744 C 22.68672,9.8104983 17.678944,4.3385008 14.149973,1.6219886 C 12.919204,0.72335337 11.346387,0.34682886 9.8663611,0.356376 z "
     style="fill:#c00000;fill-opacity:1;fill-rule:evenodd;stroke:none;stroke-width:1px;stroke-linecap:butt;stroke-linejoin:miter;stroke-opacity:1"
     id="path1316" />
  <path
     d="M 264.49744 475.53265 A 25.324224 25.324224 0 1 1  213.84899,475.53265 A 25.324224 25.324224 0 1 1  264.49744 475.53265 z"
     transform="matrix(0.295015,0,0,0.295015,-27.47482,-98.2277)"
     style="opacity:0.9;fill:#c00000;fill-opacity:1;stroke:none;stroke-width:0;stroke-miterlimit:4;stroke-dasharray:none;stroke-opacity:1"
     id="path2229" />
  <use
     transform="translate(1.592412e-4,58.17441)"
     id="use1378"
     x="0"
     y="0"
     width="142"
     height="145"
     xlink:href="#path2229" />
  <use
     transform="translate(56.18216,4.08054e-4)"
     id="use1380"
     x="0"
     y="0"
     width="142"
     height="145"
     xlink:href="#path2229" />
  <use
     transform="translate(56.18216,58.17441)"
     id="use1382"
     x="0"
     y="0"
     width="142"
     height="145"
     xlink:href="#path2229" />
</svg>
